<svg xmlns="http://www.w3.org/2000/svg" xmlns:xlink="http://www.w3.org/1999/xlink" viewBox="0 0 547.29 602.68"><defs><style>.cls-1,.cls-10,.cls-11,.cls-12,.cls-13,.cls-14,.cls-15,.cls-16,.cls-17,.cls-18,.cls-19,.cls-2,.cls-20,.cls-21,.cls-22,.cls-23,.cls-24,.cls-25,.cls-26,.cls-7,.cls-8,.cls-9{fill:none;}.cls-1,.cls-2{stroke:#ffa1c4;stroke-width:2.38px;}.cls-2{opacity:0.2;}.cls-2,.cls-5{isolation:isolate;}.cls-3{fill:url(#Безымянный_градиент);}.cls-4{fill:url(#Безымянный_градиент_2);}.cls-5{fill:#312121;opacity:0.3;}.cls-6{fill:url(#Безымянный_градиент_3);}.cls-10,.cls-11,.cls-12,.cls-13,.cls-14,.cls-15,.cls-16,.cls-17,.cls-18,.cls-19,.cls-20,.cls-21,.cls-22,.cls-23,.cls-24,.cls-25,.cls-26,.cls-7,.cls-8,.cls-9{stroke-linecap:square;}.cls-7{stroke:url(#Безымянный_градиент_23);}.cls-8{stroke:url(#Безымянный_градиент_23-2);}.cls-9{stroke:url(#Безымянный_градиент_23-3);}.cls-10{stroke:url(#Безымянный_градиент_23-4);}.cls-11{stroke:url(#Безымянный_градиент_23-5);}.cls-12{stroke:url(#Безымянный_градиент_23-6);}.cls-13{stroke:url(#Безымянный_градиент_23-7);}.cls-14{stroke:url(#Безымянный_градиент_23-8);}.cls-15{stroke:url(#Безымянный_градиент_23-9);}.cls-16{stroke:url(#Безымянный_градиент_23-10);}.cls-17{stroke:url(#Безымянный_градиент_23-11);}.cls-18{stroke:url(#Безымянный_градиент_23-12);}.cls-19{stroke:url(#Безымянный_градиент_23-13);}.cls-20{stroke:url(#Безымянный_градиент_23-14);}.cls-21{stroke:url(#Безымянный_градиент_23-15);}.cls-22{stroke:url(#Безымянный_градиент_23-16);}.cls-23{stroke:url(#Безымянный_градиент_23-17);}.cls-24{stroke:url(#Безымянный_градиент_23-18);}.cls-25{stroke:url(#Безымянный_градиент_23-19);}.cls-26{stroke:url(#Безымянный_градиент_23-20);}.cls-27{fill:#fff;}</style><linearGradient id="Безымянный_градиент" x1="204.61" y1="372.36" x2="205.07" y2="371.86" gradientTransform="matrix(22, 0, 0, -22, -4085.18, 8213.75)" gradientUnits="userSpaceOnUse"><stop offset="0" stop-color="#fe8081"/><stop offset="1" stop-color="#fe7f66"/></linearGradient><linearGradient id="Безымянный_градиент_2" x1="213.99" y1="361.94" x2="214.62" y2="360.83" gradientTransform="matrix(386, 0, 0, -419, -82434.57, 151761.6)" gradientUnits="userSpaceOnUse"><stop offset="0" stop-color="#371a3a"/><stop offset="1" stop-color="#fe6c62"/></linearGradient><linearGradient id="Безымянный_градиент_3" x1="213.93" y1="362.68" x2="214.35" y2="362.03" gradientTransform="matrix(366, 0, 0, -188.91, -78117.59, 68812.24)" gradientUnits="userSpaceOnUse"><stop offset="0" stop-color="#ffb77e"/><stop offset="1" stop-color="#ff6e58"/></linearGradient><linearGradient id="Безымянный_градиент_23" x1="213.45" y1="362.65" x2="214.15" y2="361.65" gradientTransform="matrix(231.32, 0, 0, -204.23, -49213.01, 74472.68)" gradientUnits="userSpaceOnUse"><stop offset="0" stop-color="#ffb387"/><stop offset="1" stop-color="#ac4873"/></linearGradient><linearGradient id="Безымянный_градиент_23-2" x1="213.45" y1="362.65" x2="214.15" y2="361.65" gradientTransform="matrix(231.32, 0, 0, -204.23, -49202.77, 74463.64)" xlink:href="#Безымянный_градиент_23"/><linearGradient id="Безымянный_градиент_23-3" x1="213.45" y1="362.65" x2="214.15" y2="361.65" gradientTransform="matrix(231.32, 0, 0, -204.23, -49182.29, 74463.64)" xlink:href="#Безымянный_градиент_23"/><linearGradient id="Безымянный_градиент_23-4" x1="213.45" y1="362.65" x2="214.15" y2="361.65" gradientTransform="matrix(231.32, 0, 0, -204.23, -49161.81, 74463.64)" xlink:href="#Безымянный_градиент_23"/><linearGradient id="Безымянный_градиент_23-5" x1="213.45" y1="362.65" x2="214.15" y2="361.65" gradientTransform="matrix(231.32, 0, 0, -204.23, -49141.33, 74463.64)" xlink:href="#Безымянный_градиент_23"/><linearGradient id="Безымянный_градиент_23-6" x1="213.45" y1="362.65" x2="214.15" y2="361.65" gradientTransform="matrix(231.32, 0, 0, -204.23, -49120.85, 74463.64)" xlink:href="#Безымянный_градиент_23"/><linearGradient id="Безымянный_градиент_23-7" x1="213.45" y1="362.65" x2="214.15" y2="361.65" gradientTransform="matrix(231.32, 0, 0, -204.23, -49120.85, 74445.55)" xlink:href="#Безымянный_градиент_23"/><linearGradient id="Безымянный_градиент_23-8" x1="213.45" y1="362.65" x2="214.15" y2="361.65" gradientTransform="matrix(231.32, 0, 0, -204.23, -49120.85, 74427.48)" xlink:href="#Безымянный_градиент_23"/><linearGradient id="Безымянный_градиент_23-9" x1="213.45" y1="362.65" x2="214.15" y2="361.65" gradientTransform="matrix(231.32, 0, 0, -204.23, -49120.85, 74409.39)" xlink:href="#Безымянный_градиент_23"/><linearGradient id="Безымянный_градиент_23-10" x1="213.45" y1="362.65" x2="214.15" y2="361.65" gradientTransform="matrix(231.32, 0, 0, -204.23, -49120.85, 74391.31)" xlink:href="#Безымянный_градиент_23"/><linearGradient id="Безымянный_градиент_23-11" x1="213.45" y1="362.65" x2="214.15" y2="361.65" gradientTransform="matrix(231.32, 0, 0, -204.23, -49120.85, 74373.23)" xlink:href="#Безымянный_градиент_23"/><linearGradient id="Безымянный_градиент_23-12" x1="213.45" y1="362.65" x2="214.15" y2="361.65" gradientTransform="matrix(231.32, 0, 0, -204.23, -49120.85, 74355.15)" xlink:href="#Безымянный_градиент_23"/><linearGradient id="Безымянный_градиент_23-13" x1="213.45" y1="362.65" x2="214.15" y2="361.65" gradientTransform="matrix(231.32, 0, 0, -204.23, -49120.85, 74337.07)" xlink:href="#Безымянный_градиент_23"/><linearGradient id="Безымянный_градиент_23-14" x1="213.45" y1="362.65" x2="214.15" y2="361.65" gradientTransform="matrix(231.32, 0, 0, -204.23, -49120.85, 74318.99)" xlink:href="#Безымянный_градиент_23"/><linearGradient id="Безымянный_градиент_23-15" x1="213.45" y1="362.65" x2="214.15" y2="361.65" gradientTransform="matrix(231.32, 0, 0, -204.23, -49120.85, 74300.9)" xlink:href="#Безымянный_градиент_23"/><linearGradient id="Безымянный_градиент_23-16" x1="213.45" y1="362.65" x2="214.15" y2="361.65" gradientTransform="matrix(231.32, 0, 0, -204.23, -49100.37, 74300.9)" xlink:href="#Безымянный_градиент_23"/><linearGradient id="Безымянный_градиент_23-17" x1="213.45" y1="362.65" x2="214.15" y2="361.65" gradientTransform="matrix(231.32, 0, 0, -204.23, -49079.89, 74300.9)" xlink:href="#Безымянный_градиент_23"/><linearGradient id="Безымянный_градиент_23-18" x1="213.45" y1="362.65" x2="214.15" y2="361.65" gradientTransform="matrix(231.32, 0, 0, -204.23, -49059.41, 74300.9)" xlink:href="#Безымянный_градиент_23"/><linearGradient id="Безымянный_градиент_23-19" x1="213.45" y1="362.65" x2="214.15" y2="361.65" gradientTransform="matrix(231.32, 0, 0, -204.23, -49038.93, 74300.9)" xlink:href="#Безымянный_градиент_23"/><linearGradient id="Безымянный_градиент_23-20" x1="213.45" y1="362.65" x2="214.15" y2="361.65" gradientTransform="matrix(231.32, 0, 0, -204.23, -49018.45, 74300.9)" xlink:href="#Безымянный_градиент_23"/></defs><title>ccc</title><g id="Слой_2" data-name="Слой 2"><g id="Слой_1-2" data-name="Слой 1"><g id="Welcome"><g id="Cultum-home"><g id="Landing"><g id="Cultum-C"><path id="Combined-Shape" class="cls-1" d="M293.54,332.15c112-133.43,168.77-270.1,126.89-305.24C399,8.92,355.86,21,303.85,55c-.63.41-75.74,57.5-138.66,125.54C105.88,244.64,58.92,319.27,47.41,339.91,2.43,420.56-12.46,487.1,15,510.11,56.86,545.26,181.58,465.58,293.54,332.15Z"/><path id="Combined-Shape-Copy" class="cls-2" d="M299.78,323.87C397.18,179.47,439.39,37.62,394.06,7c-23.2-15.65-64.83.88-113,40.11-.58.47-69.32,65.11-124.78,139.34C104,256.46,65.09,335.59,55.81,357.32,19.5,442.23,11.65,510,41.33,530,86.67,560.56,202.37,468.28,299.78,323.87Z"/><circle id="Oval-4" class="cls-3" cx="423.2" cy="29.51" r="11"/><path id="C" class="cls-4" d="M238.87,465.51c-115.05,0-207.67-88.06-207.67-208.35,0-118.56,90.32-210.65,212.27-210.65,82.26,0,135.19,34.53,170.85,84l-84,65c-23-28.78-49.47-47.2-88-47.2-56.38,0-96.07,47.77-96.07,106.48,0,61.58,39.69,108.78,96.07,108.78,42,0,71,19.07,95.17-10.28l79.71,21.22C379.23,426.95,328,465.51,238.87,465.51Z"/><path id="Path-2-Copy" class="cls-5" d="M62.2,368.62q75,32.93,133-24.94t62-55.87q16-16,27,1t36,59.86q24,12,35-17t18-50.88q8-5,18,9t30,43.9q6,8,3,14c-3,6-5,10-15,23.95s-58,84.81-169.5,87.8Q128.2,462.41,62.2,368.62Z"/><path id="Path-2" class="cls-6" d="M64.2,373.46q66,35,124-23t70-66q16-13,27,4t40,57q16,12,27-17t16-44q10-14,20,0t38,56q6,8,3,14c-3,6-5,10-15,24s-58,85-169.5,88Q133.2,469.42,64.2,373.46Z"/><g id="Lines"><path id="Line" class="cls-7" d="M120.71,397.74,352,602"/><path id="Line-Copy" class="cls-8" d="M131,388.7,362.27,592.93"/><path id="Line-Copy-2" class="cls-9" d="M151.43,388.7,382.75,592.93"/><path id="Line-Copy-3" class="cls-10" d="M171.91,388.7,403.23,592.93"/><path id="Line-Copy-4" class="cls-11" d="M192.39,388.7,423.71,592.93"/><path id="Line-Copy-5" class="cls-12" d="M212.87,388.7,444.19,592.93"/><path id="Line-Copy-6" class="cls-13" d="M212.87,370.62,444.19,574.85"/><path id="Line-Copy-7" class="cls-14" d="M212.87,352.53,444.19,556.77"/><path id="Line-Copy-8" class="cls-15" d="M212.87,334.45,444.19,538.69"/><path id="Line-Copy-9" class="cls-16" d="M212.87,316.37,444.19,520.6"/><path id="Line-Copy-10" class="cls-17" d="M212.87,298.29,444.19,502.52"/><path id="Line-Copy-11" class="cls-18" d="M212.87,280.21,444.19,484.44"/><path id="Line-Copy-12" class="cls-19" d="M212.87,262.13,444.19,466.36"/><path id="Line-Copy-13" class="cls-20" d="M212.87,244,444.19,448.28"/><path id="Line-Copy-14" class="cls-21" d="M212.87,226,444.19,430.2"/><path id="Line-Copy-15" class="cls-22" d="M233.35,226,464.67,430.2"/><path id="Line-Copy-16" class="cls-23" d="M253.83,226,485.15,430.2"/><path id="Line-Copy-17" class="cls-24" d="M274.31,226,505.63,430.2"/><path id="Line-Copy-18" class="cls-25" d="M294.79,226,526.11,430.2"/><path id="Line-Copy-19" class="cls-26" d="M315.27,226,546.59,430.2"/></g><g id="Oval-3"><circle class="cls-27" cx="199.2" cy="106.51" r="3"/></g><g id="Oval-3-Copy-7"><circle class="cls-27" cx="349.2" cy="126.51" r="3"/></g><g id="Oval-3-Copy-4"><circle class="cls-27" cx="99.2" cy="186.51" r="3"/></g><g id="Oval-3-Copy-5"><circle class="cls-27" cx="47.7" cy="235.01" r="1.5"/></g><circle id="Oval-3-Copy" class="cls-27" cx="117.7" cy="125.01" r="1.5"/><circle id="Oval-3-Copy-2" class="cls-27" cx="137.7" cy="255.01" r="1.5"/><circle id="Oval-3-Copy-6" class="cls-27" cx="91.2" cy="295.51" r="2"/><path id="Shape" class="cls-27" d="M101.28,242c-.13-.14-.09-.27.09-.3l1.49-.23a.74.74,0,0,0,.49-.37l.69-1.44c.08-.18.22-.18.3,0l.7,1.44a.74.74,0,0,0,.49.37l1.49.23c.19,0,.23.16.09.3L106,243.12a.8.8,0,0,0-.18.61l.26,1.56c0,.19-.08.28-.25.19l-1.37-.74a.71.71,0,0,0-.61,0l-1.33.74c-.17.09-.28,0-.25-.19l.25-1.59a.8.8,0,0,0-.19-.6Z"/><path id="Shape-Copy" class="cls-27" d="M281.28,82c-.13-.14-.09-.27.09-.3l1.49-.23a.74.74,0,0,0,.49-.37l.69-1.44c.08-.18.22-.18.3,0l.7,1.44a.74.74,0,0,0,.49.37l1.49.23c.19,0,.23.16.09.3L286,83.12a.8.8,0,0,0-.18.61l.26,1.56c0,.19-.08.28-.25.19l-1.37-.74a.71.71,0,0,0-.61,0l-1.33.74c-.17.09-.28,0-.25-.19l.25-1.59a.8.8,0,0,0-.19-.6Z"/></g></g></g></g><circle id="Oval-3-Copy-2-2" data-name="Oval-3-Copy-2" class="cls-27" cx="105.7" cy="364.24" r="1.5"/></g></g></svg>